<svg width="120" height="120" xmlns="http://www.w3.org/2000/svg">
 <style type="text/css">.icon-54-0{fill:none;stroke:#616672;}
	.icon-54-1{fill:#FFFFFF;stroke:#3D61A8;}
	.icon-54-2{fill:#616672;}
	.icon-54-3{fill:#3D61A8;}
	.icon-54-4{fill:#FFFFFF;}</style>

 <g>
  <title>background</title>
  <rect fill="none" id="canvas_background" height="602" width="802" y="-1" x="-1"/>
 </g>
 <g>
  <title>Layer 1</title>
  <path id="svg_1" d="m49.6,33.7l0,0c-1.2,0 -2.2,-1 -2.2,-2.2l0,-4.7c0,-1.2 -1,-2.2 -2.2,-2.2l-4.1,0c-1.2,0 -2.2,-1 -2.2,-2.2l0,-10.7c0,-1.2 1,-2.2 2.2,-2.2l0,0c1.2,0 2.2,1 2.2,2.2l0,6.5c0,1.2 1,2.2 2.2,2.2l4.1,0c1.2,0 2.2,1 2.2,2.2l0,9.1c0,1.1 -1,2 -2.2,2z" stroke-miterlimit="10" stroke-linejoin="round" stroke-linecap="round" stroke-width="1.5" class="icon-54-0 fill-none stroke-gray-400"/>
  <ellipse id="svg_2" ry="4.4" rx="4.5" cy="6.7" cx="41.2" stroke-miterlimit="10" stroke-width="3" class="icon-54-1 fill-white stroke-primary"/>
  <path id="svg_3" d="m70.4,33.7l0,0c-1.2,0 -2.2,-1 -2.2,-2.2l0,-9.1c0,-1.2 1,-2.2 2.2,-2.2l4.1,0c1.2,0 2.2,-1 2.2,-2.2l0,-6.5c0,-1.2 1,-2.2 2.2,-2.2l0,0c1.2,0 2.2,1 2.2,2.2l0,10.8c0,1.2 -1,2.2 -2.2,2.2l-4.1,0c-1.2,0 -2.2,1 -2.2,2.2l0,4.7c0,1.4 -1,2.3 -2.2,2.3z" stroke-miterlimit="10" stroke-linejoin="round" stroke-linecap="round" stroke-width="1.5" class="icon-54-0 fill-none stroke-gray-400"/>
  <ellipse id="svg_4" ry="4.4" rx="4.5" cy="6.7" cx="78.8" stroke-miterlimit="10" stroke-width="3" class="icon-54-1 fill-white stroke-primary"/>
  <path id="svg_5" d="m78.8,111.5l0,0c-1.2,0 -2.2,-1 -2.2,-2.2l0,-6.5c0,-1.2 -1,-2.2 -2.2,-2.2l-4.1,0c-1.2,0 -2.2,-1 -2.2,-2.2l0,-9.1c0,-1.2 1,-2.2 2.2,-2.2l0,0c1.2,0 2.2,1 2.2,2.2l0,4.7c0,1.2 1,2.2 2.2,2.2l4.1,0c1.2,0 2.2,1 2.2,2.2l0,10.8c0,1.3 -1,2.3 -2.2,2.3z" stroke-miterlimit="10" stroke-linejoin="round" stroke-linecap="round" stroke-width="1.5" class="icon-54-0 fill-none stroke-gray-400"/>
  <ellipse id="svg_6" ry="4.3" rx="4.4" cy="113.4" cx="78.5" stroke-miterlimit="10" stroke-width="3" class="icon-54-1 fill-white stroke-primary"/>
  <path id="svg_7" d="m41.2,111.5l0,0c-1.2,0 -2.2,-1 -2.2,-2.2l0,-10.8c0,-1.2 1,-2.2 2.2,-2.2l4.1,0c1.2,0 2.2,-1 2.2,-2.2l0,-4.7c0,-1.2 1,-2.2 2.2,-2.2l0,0c1.2,0 2.2,1 2.2,2.2l0,9.1c0,1.2 -1,2.2 -2.2,2.2l-4.1,0c-1.2,0 -2.2,1 -2.2,2.2l0,6.5c0,1.1 -1,2.1 -2.2,2.1z" stroke-miterlimit="10" stroke-linejoin="round" stroke-linecap="round" stroke-width="1.5" class="icon-54-0 fill-none stroke-gray-400"/>
  <ellipse id="svg_8" ry="4.3" rx="4.4" cy="113.4" cx="41.5" stroke-miterlimit="10" stroke-width="3" class="icon-54-1 fill-white stroke-primary"/>
  <path id="svg_9" d="m22,81.5l-10.8,0c-1.2,0 -2.2,-1 -2.2,-2.2l0,0c0,-1.2 1,-2.2 2.2,-2.2l6.5,0c1.2,0 2.2,-1 2.2,-2.2l0,-4.1c0,-1.2 1,-2.2 2.2,-2.2l9.1,0c1.2,0 2.2,1 2.2,2.2l0,0c0,1.2 -1,2.2 -2.2,2.2l-4.7,0c-1.2,0 -2.2,1 -2.2,2.2l0,4.1c-0.1,1.2 -1.1,2.2 -2.3,2.2z" stroke-miterlimit="10" stroke-linejoin="round" stroke-linecap="round" stroke-width="1.5" class="icon-54-0 fill-none stroke-gray-400"/>
  <ellipse id="svg_10" ry="4.5" rx="4.4" cy="79.3" cx="6.1" stroke-miterlimit="10" stroke-width="3" class="icon-54-1 fill-white stroke-primary"/>
  <path id="svg_11" d="m31.1,52.3l-9.1,0c-1.2,0 -2.2,-1 -2.2,-2.2l0,-4.1c0,-1.2 -1,-2.2 -2.2,-2.2l-6.5,0c-1.2,0 -2.2,-1 -2.2,-2.2l0,0c0,-1.2 1,-2.2 2.2,-2.2l10.9,0c1.2,0 2.2,1 2.2,2.2l0,4.1c0,1.2 1,2.2 2.2,2.2l4.7,0c1.2,0 2.2,1 2.2,2.2l0,0c-0.1,1.2 -1,2.2 -2.2,2.2z" stroke-miterlimit="10" stroke-linejoin="round" stroke-linecap="round" stroke-width="1.5" class="icon-54-0 fill-none stroke-gray-400"/>
  <ellipse id="svg_12" ry="4.5" rx="4.4" cy="41.7" cx="6.1" stroke-miterlimit="10" stroke-width="3" class="icon-54-1 fill-white stroke-primary"/>
  <path id="svg_13" d="m98,52.3l-9.1,0c-1.2,0 -2.2,-1 -2.2,-2.2l0,0c0,-1.2 1,-2.2 2.2,-2.2l4.7,0c1.2,0 2.2,-1 2.2,-2.2l0,-4.1c0,-1.2 1,-2.2 2.2,-2.2l10.8,0c1.2,0 2.2,1 2.2,2.2l0,0c0,1.2 -1,2.2 -2.2,2.2l-6.5,0c-1.2,0 -2.2,1 -2.2,2.2l0,4.1c0.1,1.2 -0.9,2.2 -2.1,2.2z" stroke-miterlimit="10" stroke-linejoin="round" stroke-linecap="round" stroke-width="1.5" class="icon-54-0 fill-none stroke-gray-400"/>
  <ellipse id="svg_14" ry="4.5" rx="4.4" cy="41.7" cx="113.9" stroke-miterlimit="10" stroke-width="3" class="icon-54-1 fill-white stroke-primary"/>
  <path id="svg_15" d="m108.8,81.5l-10.8,0c-1.2,0 -2.2,-1 -2.2,-2.2l0,-4.1c0,-1.2 -1,-2.2 -2.2,-2.2l-4.7,0c-1.2,0 -2.2,-1 -2.2,-2.2l0,0c0,-1.2 1,-2.2 2.2,-2.2l9.1,0c1.2,0 2.2,1 2.2,2.2l0,4.2c0,1.2 1,2.2 2.2,2.2l6.5,0c1.2,0 2.2,1 2.2,2.2l0,0c-0.1,1.1 -1.1,2.1 -2.3,2.1z" stroke-miterlimit="10" stroke-linejoin="round" stroke-linecap="round" stroke-width="1.5" class="icon-54-0 fill-none stroke-gray-400"/>
  <ellipse id="svg_16" ry="4.5" rx="4.4" cy="79.3" cx="113.9" stroke-miterlimit="10" stroke-width="3" class="icon-54-1 fill-white stroke-primary"/>
  <path id="svg_17" d="m86.9,100.2l-33.7,0c-7.1,0 -12.9,-5.8 -12.9,-12.9l0,-33.7c0,-7.1 5.8,-12.9 12.9,-12.9l33.7,0c7.1,0 12.9,5.8 12.9,12.9l0,33.7c0,7.1 -5.8,12.9 -12.9,12.9z" opacity="0.5" class="icon-54-2 fill-gray-400"/>
  <path id="svg_18" d="m76.9,90.2l-33.7,0c-7.1,0 -12.9,-5.8 -12.9,-12.9l0,-33.7c0,-7.1 5.8,-12.9 12.9,-12.9l33.7,0c7.1,0 12.9,5.8 12.9,12.9l0,33.7c0,7.1 -5.7,12.9 -12.9,12.9z" class="icon-54-3 fill-primary"/>
  <path id="svg_19" d="m77.4,85.3l-34.6,0c-4.1,0 -7.5,-3.3 -7.5,-7.5l0,-34.6c0,-4.1 3.3,-7.5 7.5,-7.5l34.6,0c4.1,0 7.5,3.3 7.5,7.5l0,34.6c0,4.1 -3.4,7.5 -7.5,7.5zm-34.6,-45.3c-1.7,0 -3.1,1.4 -3.1,3.1l0,34.6c0,1.7 1.4,3.1 3.1,3.1l34.6,0c1.7,0 3.1,-1.4 3.1,-3.1l0,-34.5c0,-1.7 -1.4,-3.1 -3.1,-3.1l-34.6,0l0,-0.1z" class="icon-54-4 fill-white"/>
  <text font-style="normal" font-weight="bold" xml:space="preserve" text-anchor="start" font-family="Helvetica, Arial, sans-serif" font-size="18" id="svg_27" y="66.20659" x="45.37938" stroke-opacity="null" stroke-width="0" stroke="null" fill="#ffffff">SW</text>
 </g>
</svg>
