<svg width="120" height="120" xmlns="http://www.w3.org/2000/svg">
 <style type="text/css">.icon-53-0{fill:#616672;}
	.icon-53-1{fill:#FFFFFF;stroke:#616672;}
	.icon-53-2{fill:#3D61A8;}
	.icon-53-3{fill:#FFFFFF;stroke:#3D61A8;}
	.icon-53-4{fill:#FFFFFF;}
	.icon-53-5{fill:#3D61A8;stroke:#3D61A8;}</style>

 <g>
  <title>background</title>
  <rect fill="none" id="canvas_background" height="602" width="802" y="-1" x="-1"/>
 </g>
 <g>
  <title>Layer 1</title>
  <polygon id="svg_1" points="108,25.1 99.4,25.1 57.1,25.1 48.6,25.1 36.6,31.1 36.6,33.5 36.6,36.4 36.6,42 48.6,44.8 36.6,50.9  36.6,53.2 36.6,56.1 36.6,61.7 48.6,64.5 36.6,70.6 36.6,72.9 36.6,75.9 36.6,81.5 48.6,84.3 36.6,90.3 36.6,92.7 36.6,95.6  36.6,101.2 48.6,104 57.1,104 99.4,104 108,104 120,101.2 120,95.6 120,92.7 120,90.3 108,84.3 120,81.5 120,75.9 120,72.9  120,70.6 108,64.5 120,61.7 120,56.1 120,53.2 120,50.9 108,44.8 120,42 120,36.4 120,33.5 120,31.1 " opacity="0.4" class="icon-53-0 fill-gray-400"/>
  <polygon id="svg_2" points="96.1,19.9 87.6,19.9 45.2,19.9 36.7,19.9 24.7,26 24.7,28.3 24.7,31.2 24.7,36.9 36.7,39.7 45.2,39.7  87.6,39.7 96.1,39.7 108.1,36.9 108.1,31.2 108.1,28.3 108.1,26 " stroke-miterlimit="10" stroke-width="3" class="icon-53-1 fill-white stroke-gray-400"/>
  <path id="svg_3" d="m39.4,114l0,0c-1.2,0 -2.2,-1.1 -2.2,-2.5l0,-11.1c0,-1.4 1,-2.5 2.2,-2.5l0,0c1.2,0 2.2,1.1 2.2,2.5l0,11.1c0,1.4 -0.9,2.5 -2.2,2.5z" class="icon-53-2 fill-primary"/>
  <path id="svg_4" d="m67.3,114l0,0c-1.2,0 -2.2,-1.1 -2.2,-2.5l0,-11.1c0,-1.4 1,-2.5 2.2,-2.5l0,0c1.2,0 2.2,1.1 2.2,2.5l0,11.1c0,1.4 -1,2.5 -2.2,2.5z" class="icon-53-2 fill-primary"/>
  <path id="svg_5" d="m93.5,114l0,0c-1.2,0 -2.2,-1.1 -2.2,-2.5l0,-11.1c0,-1.4 1,-2.5 2.2,-2.5l0,0c1.2,0 2.2,1.1 2.2,2.5l0,11.1c0.1,1.4 -0.9,2.5 -2.2,2.5z" class="icon-53-2 fill-primary"/>
  <path id="svg_6" d="m41.2,30.5c0,1.5 -1.2,2.7 -2.7,2.7c-1.5,0 -2.7,-1.2 -2.7,-2.7c0,-1.5 1.2,-2.7 2.7,-2.7c1.4,-0.1 2.7,1.2 2.7,2.7z" class="icon-53-2 fill-primary"/>
  <path id="svg_7" d="m96.3,30.5c0,1.5 -1.2,2.7 -2.7,2.7c-1.5,0 -2.7,-1.2 -2.7,-2.7c0,-1.5 1.2,-2.7 2.7,-2.7c1.4,-0.1 2.7,1.2 2.7,2.7z" class="icon-53-2 fill-primary"/>
  <polygon id="svg_8" points="96.1,39.7 87.6,39.7 45.2,39.7 36.7,39.7 24.7,45.7 24.7,48.1 24.7,51 24.7,56.6 36.7,59.4 45.2,59.4  87.6,59.4 96.1,59.4 108.1,56.6 108.1,51 108.1,48.1 108.1,45.7 " stroke-miterlimit="10" stroke-width="3" class="icon-53-1 fill-white stroke-gray-400"/>
  <path id="svg_9" d="m41.2,50.2c0,1.5 -1.2,2.7 -2.7,2.7s-2.7,-1.2 -2.7,-2.7c0,-1.5 1.2,-2.7 2.7,-2.7s2.7,1.2 2.7,2.7z" class="icon-53-2 fill-primary"/>
  <path id="svg_10" d="m96.3,50.2c0,1.5 -1.2,2.7 -2.7,2.7c-1.5,0 -2.7,-1.2 -2.7,-2.7c0,-1.5 1.2,-2.7 2.7,-2.7c1.4,0 2.7,1.2 2.7,2.7z" class="icon-53-2 fill-primary"/>
  <polygon id="svg_11" points="96.1,59.4 87.6,59.4 45.2,59.4 36.7,59.4 24.7,65.4 24.7,67.8 24.7,70.7 24.7,76.3 36.7,79.1  45.2,79.1 87.6,79.1 96.1,79.1 108.1,76.3 108.1,70.7 108.1,67.8 108.1,65.4 " stroke-miterlimit="10" stroke-width="3" class="icon-53-5 fill-primary stroke-primary"/>
  <path id="svg_12" d="m41.2,69.9c0,1.5 -1.2,2.7 -2.7,2.7s-2.7,-1.2 -2.7,-2.7c0,-1.5 1.2,-2.7 2.7,-2.7s2.7,1.2 2.7,2.7z" class="icon-53-4 fill-white"/>
  <path id="svg_13" d="m96.3,69.9c0,1.5 -1.2,2.7 -2.7,2.7c-1.5,0 -2.7,-1.2 -2.7,-2.7c0,-1.5 1.2,-2.7 2.7,-2.7c1.4,0 2.7,1.2 2.7,2.7z" class="icon-53-4 fill-white"/>
  <polygon id="svg_14" points="96.1,79.1 87.6,79.1 45.2,79.1 36.7,79.1 24.7,85.2 24.7,87.5 24.7,90.4 24.7,96 36.7,98.8 45.2,98.8  87.6,98.8 96.1,98.8 108.1,96 108.1,90.4 108.1,87.5 108.1,85.2 " stroke-miterlimit="10" stroke-width="3" class="icon-53-1 fill-white stroke-gray-400"/>
  <path id="svg_15" d="m41.2,89.7c0,1.5 -1.2,2.7 -2.7,2.7s-2.7,-1.2 -2.7,-2.7c0,-1.5 1.2,-2.7 2.7,-2.7s2.7,1.1 2.7,2.7z" class="icon-53-2 fill-primary"/>
  <path id="svg_16" d="m96.3,89.7c0,1.5 -1.2,2.7 -2.7,2.7c-1.5,0 -2.7,-1.2 -2.7,-2.7c0,-1.5 1.2,-2.7 2.7,-2.7c1.4,-0.1 2.7,1.1 2.7,2.7z" class="icon-53-2 fill-primary"/>
  <path id="svg_17" d="m116.3,116.4l-98.2,0c-1.9,0 -3.4,-1.6 -3.4,-3.5l0,0c0,-1.9 1.5,-3.5 3.4,-3.5l98.1,0c1.9,0 3.4,1.6 3.4,3.5l0,0c0.1,2 -1.4,3.5 -3.3,3.5z" opacity="0.7" class="icon-53-0 fill-gray-400"/>
  <path id="svg_18" d="m44.6,112.9c0,2.9 -2.4,5.3 -5.3,5.3s-5.3,-2.4 -5.3,-5.3c0,-2.9 2.4,-5.3 5.3,-5.3s5.3,2.4 5.3,5.3z" stroke-miterlimit="10" stroke-width="3" class="icon-53-3 fill-white stroke-primary"/>
  <path id="svg_19" d="m72.5,112.9c0,2.9 -2.4,5.3 -5.3,5.3c-2.9,0 -5.3,-2.4 -5.3,-5.3c0,-2.9 2.4,-5.3 5.3,-5.3c2.9,0 5.3,2.4 5.3,5.3z" stroke-miterlimit="10" stroke-width="3" class="icon-53-3 fill-white stroke-primary"/>
  <path id="svg_20" d="m98.8,112.9c0,2.9 -2.4,5.3 -5.3,5.3c-2.9,0 -5.3,-2.4 -5.3,-5.3c0,-2.9 2.4,-5.3 5.3,-5.3c2.9,0 5.3,2.4 5.3,5.3z" stroke-miterlimit="10" stroke-width="3" class="icon-53-3 fill-white stroke-primary"/>
  <path id="svg_21" d="m19.3,9.2c10.6,0 19.2,8.6 19.2,19.2s-8.6,19.2 -19.2,19.2c-10.6,0 -19.2,-8.6 -19.2,-19.2s8.6,-19.2 19.2,-19.2z" opacity="0.5" class="icon-53-0 fill-gray-400"/>
  <path id="svg_22" d="m27.6,0c11.2,0 20.2,9.1 20.2,20.2s-9.1,20.2 -20.2,20.2c-11.2,0 -20.2,-9.1 -20.2,-20.2s9,-20.2 20.2,-20.2z" class="icon-53-2 fill-primary"/>
  <path id="svg_23" d="m31.6,13z" class="icon-53-4 fill-white"/>
  <text font-weight="bold" xml:space="preserve" text-anchor="start" font-family="Helvetica, Arial, sans-serif" font-size="15" id="svg_24" y="25.51809" x="14.82456" stroke-opacity="null" stroke-width="0" stroke="null" fill="#ffffff">SW</text>
 </g>
</svg>
