<svg width="120" height="120" xmlns="http://www.w3.org/2000/svg">
 <style type="text/css">.icon-42-0{fill:#616672;}
	.icon-42-1{fill:none;stroke:#3D61A8;}
	.icon-42-2{fill:none;stroke: #616672;}
	.icon-42-3{fill:#3D61A8;}</style>

 <g>
  <title>background</title>
  <rect fill="none" id="canvas_background" height="602" width="802" y="-1" x="-1"/>
 </g>
 <g>
  <title>Layer 1</title>
  <path id="svg_1" d="m6.7,91l0,7.8c0,0.8 1.2,1.5 2.7,1.5l102.5,0c1.5,0 2.7,-0.7 2.7,-1.5l0,-7.8l-107.9,0z" opacity="0.5" class="icon-42-0 fill-gray-400"/>
  <g id="svg_2">
   <rect id="svg_3" height="7.6" width="7.6" stroke-miterlimit="10" stroke-linejoin="round" stroke-linecap="round" stroke-width="3" class="icon-42-1 fill-none stroke-primary" y="26.7" x="78.4"/>
   <line id="svg_4" y2="27.7" x2="104.9" y1="27.7" x1="92.4" stroke-miterlimit="10" stroke-linejoin="round" stroke-linecap="round" stroke-width="3" class="icon-42-1 fill-none stroke-primary"/>
   <line id="svg_5" y2="33.3" x2="104.9" y1="33.3" x1="92.4" stroke-miterlimit="10" stroke-linejoin="round" stroke-linecap="round" stroke-width="3" class="icon-42-1 fill-none stroke-primary"/>
  </g>
  <g id="svg_6" opacity="0.5">
   <rect id="svg_7" height="7.6" width="7.6" stroke-miterlimit="10" stroke-linejoin="round" stroke-linecap="round" stroke-width="3" class="icon-42-2 fill-none stroke-gray-400" y="46.4" x="78.4"/>
   <line id="svg_8" y2="47.4" x2="104.9" y1="47.4" x1="92.4" stroke-miterlimit="10" stroke-linejoin="round" stroke-linecap="round" stroke-width="3" class="icon-42-2 fill-none stroke-gray-400"/>
   <line id="svg_9" y2="53" x2="104.9" y1="53" x1="92.4" stroke-miterlimit="10" stroke-linejoin="round" stroke-linecap="round" stroke-width="3" class="icon-42-2 fill-none stroke-gray-400"/>
  </g>
  <g id="svg_10" opacity="0.5">
   <rect id="svg_11" height="7.6" width="7.6" stroke-miterlimit="10" stroke-linejoin="round" stroke-linecap="round" stroke-width="3" class="icon-42-2 fill-none stroke-gray-400" y="66.1" x="78.4"/>
   <line id="svg_12" y2="67.1" x2="104.9" y1="67.1" x1="92.4" stroke-miterlimit="10" stroke-linejoin="round" stroke-linecap="round" stroke-width="3" class="icon-42-2 fill-none stroke-gray-400"/>
   <line id="svg_13" y2="72.7" x2="104.9" y1="72.7" x1="92.4" stroke-miterlimit="10" stroke-linejoin="round" stroke-linecap="round" stroke-width="3" class="icon-42-2 fill-none stroke-gray-400"/>
  </g>
  <path id="svg_14" d="m39.4,52.6l0,0l0,-22.7l0,0c-12.4,0 -22.7,10.2 -22.7,22.7c0,12.4 10.2,22.7 22.7,22.7c12.4,0 22.7,-10.2 22.7,-22.7l-22.7,0l0,0z" opacity="0.5" class="icon-42-0 fill-gray-400"/>
  <path fill="#377dff" id="svg_15" d="m44.4,24.7l0,22.7l22.7,0c0,-12.5 -10.3,-22.7 -22.7,-22.7z" class="icon-42-3 fill-primary"/>
  <line id="svg_16" y2="104.8" x2="57.1" y1="104.8" x1="42.7" stroke-miterlimit="10" stroke-linejoin="round" stroke-linecap="round" stroke-width="3" class="icon-42-1 fill-none stroke-primary"/>
  <line id="svg_17" y2="104.8" x2="78.6" y1="104.8" x1="64.2" stroke-miterlimit="10" stroke-linejoin="round" stroke-linecap="round" stroke-width="3" class="icon-42-1 fill-none stroke-primary"/>
  <polyline id="svg_18" points="57.1,91.3 57.1,116.6 64.2,116.6 64.2,91.3 " stroke-miterlimit="10" stroke-linejoin="round" stroke-linecap="round" stroke-width="3" class="icon-42-2 fill-none stroke-gray-400"/>
  <polyline id="svg_19" points="73.3,91.3 83.3,116.6 90.4,116.6 80.4,91.3 " stroke-miterlimit="10" stroke-linejoin="round" stroke-linecap="round" stroke-width="3" class="icon-42-2 fill-none stroke-gray-400"/>
  <polyline id="svg_20" points="48,91.3 38,116.6 31,116.6 41,91.3 " stroke-miterlimit="10" stroke-linejoin="round" stroke-linecap="round" stroke-width="3" class="icon-42-2 fill-none stroke-gray-400"/>
  <path id="svg_21" d="m116.6,13.3l-113.2,0c-1.2,0 -2.1,-1 -2.1,-2.1l0,0c-0.1,-1.2 0.9,-2.2 2.1,-2.2l113.3,0c1.2,0 2.1,1 2.1,2.1l0,0c0,1.3 -1,2.2 -2.2,2.2z" stroke-miterlimit="10" stroke-linejoin="round" stroke-linecap="round" stroke-width="3" class="icon-42-2 fill-none stroke-gray-400"/>
  <path id="svg_22" d="m116.6,91.3l-113.2,0c-1.2,0 -2.1,-1 -2.1,-2.1l0,0c0,-1.2 1,-2.1 2.1,-2.1l113.3,0c1.2,0 2.1,1 2.1,2.1l0,0c0,1.2 -1,2.1 -2.2,2.1z" stroke-miterlimit="10" stroke-linejoin="round" stroke-linecap="round" stroke-width="3" class="icon-42-2 fill-none stroke-gray-400"/>
  <line id="svg_23" y2="13.3" x2="6.7" y1="87.1" x1="6.7" stroke-miterlimit="10" stroke-linejoin="round" stroke-linecap="round" stroke-width="3" class="icon-42-2 fill-none stroke-gray-400"/>
  <line id="svg_24" y2="87.1" x2="114.7" y1="13.3" x1="114.7" stroke-miterlimit="10" stroke-linejoin="round" stroke-linecap="round" stroke-width="3" class="icon-42-2 fill-none stroke-gray-400"/>
  <line id="svg_25" y2="3.4" x2="69" y1="3.4" x1="52.3" stroke-miterlimit="10" stroke-linejoin="round" stroke-linecap="round" stroke-width="3" class="icon-42-1 fill-none stroke-primary"/>
  <text fill-opacity="0" xml:space="preserve" text-anchor="start" font-family="Helvetica, Arial, sans-serif" font-size="15" id="svg_26" y="68.59887" x="33.03279" stroke-width="0" fill="white">SW</text>
  <text font-weight="bold" xml:space="preserve" text-anchor="start" font-family="Helvetica, Arial, sans-serif" font-size="15" id="svg_27" y="67.61526" x="26.96722" stroke-opacity="null" stroke-width="0" stroke="null" fill="#3D61A8">SW</text>
 </g>
</svg>
