<svg width="120" height="120" xmlns="http://www.w3.org/2000/svg">
 <style type="text/css">.icon-28-0{fill:none;stroke:#3D61A8;}
	.icon-28-1{fill:#616672;}
	.icon-28-2{fill:#FFFFFF;stroke:#616672;}
	.icon-28-3{fill:#FFFFFF;}
	.icon-28-4{fill:#3D61A8;stroke:#3D61A8;}
	.icon-28-5{fill:none;stroke:#FFFFFF;}
	.icon-28-6{fill:none;stroke:#616672;}
	.icon-28-7{fill:#3D61A8;}</style>

 <g>
  <title>background</title>
  <rect fill="none" id="canvas_background" height="602" width="802" y="-1" x="-1"/>
 </g>
 <g>
  <title>Layer 1</title>
  <line id="svg_1" y2="110.7" x2="107.4" y1="110.7" x1="88.1" stroke-miterlimit="10" stroke-linejoin="round" stroke-linecap="round" stroke-width="3" class="icon-28-0 fill-none stroke-primary"/>
  <path id="svg_2" d="m24.6,56.6l93.1,0c0.8,0 1.5,0.7 1.5,1.5l0,60.1c0,0.8 -0.7,1.5 -1.5,1.5l-91.6,0c-0.8,0 -1.5,-0.7 -1.5,-1.5l0,-61.6" opacity="0.3" class="icon-28-1 fill-gray-400"/>
  <polyline id="svg_3" points="107.7,55.3 107.7,118.4 13.2,118.4 13.2,55.3 " stroke-miterlimit="10" stroke-linejoin="round" stroke-linecap="round" stroke-width="3" class="icon-28-2 fill-white stroke-gray-400"/>
  <path id="svg_4" d="m40.8,55.4l0,35.2l3,-3c1,-1 2.5,-1 3.5,0l0.9,1c1.1,1.2 2.8,1 3.8,-0.3l0,0c1,-1.4 2.7,-1.5 3.8,-0.3l2.7,2.7l0,-35.3" opacity="0.5" class="icon-28-1 fill-gray-400"/>
  <path id="svg_5" d="m34.1,55.4l0,28.1l3,-2.4c1,-0.8 2.5,-0.8 3.5,0l0.9,0.8c1.1,0.9 2.8,0.8 3.8,-0.3l0,0c1,-1.1 2.7,-1.2 3.8,-0.3l2.7,2.2l0,-28.1" stroke-miterlimit="10" stroke-linejoin="round" stroke-linecap="round" stroke-width="3" class="icon-28-4 fill-primary stroke-primary"/>
  <line id="svg_9" y2="71.7" x2="38.6" y1="55.4" x1="38.6" stroke-miterlimit="10" stroke-linejoin="round" stroke-linecap="round" stroke-width="3" class="icon-28-5 fill-none stroke-white"/>
  <line id="svg_10" y2="97.5" x2="75.3" y1="55.3" x1="75.3" stroke-miterlimit="10" stroke-linejoin="round" stroke-linecap="round" stroke-width="3" class="icon-28-6 fill-none stroke-gray-400"/>
  <line id="svg_11" y2="118.4" x2="75.3" y1="106.1" x1="75.3" stroke-miterlimit="10" stroke-linejoin="round" stroke-linecap="round" stroke-width="3" class="icon-28-6 fill-none stroke-gray-400"/>
  <polyline id="svg_12" points="65.9,55.3 13.2,55.3 2.4,32.2 64.4,32.2 75.2,55.3 94.5,55.3 " stroke-miterlimit="10" stroke-linejoin="round" stroke-linecap="round" stroke-width="3" class="icon-28-6 fill-none stroke-gray-400"/>
  <line id="svg_13" y2="36.6" x2="66.5" y1="36.6" x1="83.8" stroke-miterlimit="10" stroke-linejoin="round" stroke-linecap="round" stroke-width="3" class="icon-28-6 fill-none stroke-gray-400"/>
  <line id="svg_14" y2="38.2" x2="13.5" y1="38.2" x1="60.4" stroke-miterlimit="10" stroke-linejoin="round" stroke-linecap="round" stroke-width="3" class="icon-28-6 fill-none stroke-gray-400"/>
  <line id="svg_15" y2="38.2" x2="90.1" y1="38.2" x1="115.8" stroke-miterlimit="10" stroke-linejoin="round" stroke-linecap="round" stroke-width="3" class="icon-28-6 fill-none stroke-gray-400"/>
  <path id="svg_16" d="m101,31.7c0,-1.3 0.2,-2.5 0.5,-3.7" stroke-miterlimit="10" stroke-linejoin="round" stroke-linecap="round" stroke-width="3" class="icon-28-0 fill-none stroke-primary"/>
  <path id="svg_17" d="m99.9,55.3c0,0 6.6,0 7.7,0l10.8,-23.1l-32.3,0l-10.8,23.1" stroke-miterlimit="10" stroke-linejoin="round" stroke-linecap="round" stroke-width="3" class="icon-28-6 fill-none stroke-gray-400"/>
  <path id="svg_18" d="m7.6,6.6c-2,-0.3 -4,-0.4 -6.1,-0.4" stroke-miterlimit="10" stroke-linejoin="round" stroke-linecap="round" stroke-width="3" class="icon-28-0 fill-none stroke-primary"/>
  <path id="svg_19" d="m28.6,25.9c-1,-6.8 -5.7,-13 -11.7,-16.3" stroke-miterlimit="10" stroke-linejoin="round" stroke-linecap="round" stroke-width="3" class="icon-28-0 fill-none stroke-primary"/>
  <path id="svg_20" d="m105.3,19.6c2.4,-2.7 5.9,-4 9.5,-4" stroke-miterlimit="10" stroke-linejoin="round" stroke-linecap="round" stroke-width="3" class="icon-28-0 fill-none stroke-primary"/>
  <path id="svg_21" d="m70.1,27l0,-4.2c3.1,-1.9 5.1,-5.3 5.1,-9.1c0,-6 -4.8,-10.8 -10.8,-10.8s-10.8,4.9 -10.8,10.8c0,3.9 2,7.2 5.1,9.1l0,4.2" opacity="0.5" class="icon-28-1 fill-gray-400"/>
  <path id="svg_22" d="m66.1,24.4l0,-4.2c3.1,-1.9 5.1,-5.3 5.1,-9.1c0,-6 -4.8,-10.8 -10.8,-10.8s-10.7,4.8 -10.7,10.8c0,3.9 2,7.2 5.1,9.1l0,4.2" class="icon-28-7 fill-primary"/>
  <path id="svg_23" d="m62.5,15.6l0,-1.6c1.1,-0.7 1.9,-1.9 1.9,-3.4c0,-2.2 -1.8,-4 -4,-4c-2.2,0 -4,1.8 -4,4c0,1.4 0.8,2.7 1.9,3.4l0,1.5" class="icon-28-3 fill-white"/>
  <text font-weight="bold" xml:space="preserve" text-anchor="start" font-family="Helvetica, Arial, sans-serif" font-size="15" id="svg_24" y="109.53271" x="32.61682" fill-opacity="null" stroke-opacity="null" stroke-width="0" stroke="null" fill="#3D61A8">MIT</text>
 </g>
</svg>
